# xmcd
#
# Track frame offsets: 
#        150
#        21625
#        38618
#        107721
#        134205
#        153901
#        177631
#        202625
#
# Disc length: 3513 seconds
#
# Revision: 0
# Processed by: cddbd v1.5.2PL0 Copyright (c) Steve Scherf et al.
# Submitted via: ExactAudioCopy v0.95b3
#
DISCID=6b0db708
DTITLE=Cross Canadian Ragweed - Back To Tulsa: Live And Loud At Cain's
DTITLE=Ballroom [CD2]
DYEAR=2006
DGENRE=Country
TTITLE0=Cold Hearted Woman
TTITLE1=Jimmy And Annie
TTITLE2=Wanna Rock and Roll
TTITLE3=17
TTITLE4=Hammer Down
TTITLE5=Alabama
TTITLE6=Blues For You
TTITLE7=Lonely Feeling
EXTD=
EXTT0=
EXTT1=
EXTT2=
EXTT3=
EXTT4=
EXTT5=
EXTT6=
EXTT7=
PLAYORDER=
